<svg width="158" height="156" viewBox="0 0 158 156" fill="none" xmlns="http://www.w3.org/2000/svg">
<rect width="158" height="156" fill="#FFFEFA"/>
<g filter="url(#filter0_n_3525_40)">
<path fill-rule="evenodd" clip-rule="evenodd" d="M48.4137 31.4642C43.5884 34.3669 40.9138 38.1727 39.8747 43.6168C38.5507 50.5498 41.0054 58.6579 43.81 56.619C46.874 54.3909 52.4941 58.9166 49.9805 61.5869C49.4993 62.0986 49.8565 64.0828 50.8166 66.231C52.2911 69.5309 52.223 70.4506 50.2544 73.8644C47.5952 78.4758 43.5596 79.956 38.9898 77.9955C34.9069 76.2441 32.8057 72.1126 33.7646 67.7239C34.1747 65.8458 35.0232 63.9235 35.6497 63.4516C36.3364 62.9355 36.0623 62.7566 34.959 63.0005C30.7862 63.9245 24.5591 71.4316 23.3215 77.0313C22.2716 81.7797 24.9372 90.2485 28.5738 93.7185C32.1205 97.1026 34.3046 98.2112 38.9566 98.9874C42.0271 99.5006 42.3324 99.3498 42.7856 97.0978C43.4347 93.8726 46.8824 92.4614 49.259 94.449C50.2872 95.3077 52.2194 96.0591 53.5528 96.1191C57.0093 96.2722 61.3027 99.8141 62.2308 103.278C62.7478 105.207 62.2759 107.534 60.8742 109.965C57.4419 115.916 51.2213 116.529 46.5317 111.38C44.6346 109.296 43.9558 109.054 43.5605 110.32C42.071 115.1 47.7191 125.294 53.5006 128.259C56.9656 130.036 63.6144 130.715 67.3853 129.678C70.8682 128.72 77.7053 123.634 78.3357 121.533C78.5408 120.847 77.8833 119.515 76.8749 118.573C74.5592 116.411 75.3338 113.248 78.58 111.607C79.8284 110.976 81.8927 109.254 83.1671 107.779C86.6207 103.785 92.4006 103.907 96.2877 108.055C98.855 110.794 99.1446 111.586 98.7318 114.728C98.1324 119.297 94.3183 122.87 89.8096 123.087L86.4315 123.25L89.0522 124.991C95.511 129.283 105.824 128.541 111.55 123.373C115.525 119.786 117.027 116.935 117.742 111.622C118.744 104.159 116.19 98.3194 112.67 100.024C111.455 100.612 109.778 100.544 108.824 99.8673C107.063 98.6195 106.65 94.3817 108.248 93.9536C108.778 93.8114 108.465 92.746 107.5 91.4068C105.206 88.227 106.143 81.9004 109.238 79.665C113.07 76.897 115.419 76.7504 119.365 79.0313C123.903 81.655 125.27 85.7191 123.222 90.5052L121.768 93.9063L124.532 92.3806C134.216 87.0395 137.516 75.644 132.093 66.2718C129.694 62.1252 123.274 58.0446 118.015 57.3211C114.772 56.8757 114.562 56.9934 114.819 59.1166C115.191 62.1964 110.655 64.0459 108.058 61.8748C107.029 61.0151 105.097 60.2637 103.764 60.2037C100.392 60.0538 96.0215 56.5368 95.146 53.2694C94.2796 50.0362 96.9072 44.5233 100.184 42.6986C103.464 40.8729 109.353 42.438 111.987 45.8369L114.185 48.6705L113.876 44.6537C112.727 29.663 98.7043 21.7572 85.9154 28.8899C81.5833 31.3057 77.8377 36.6577 80.0191 37.3142C82.0727 37.9317 82.7044 42.4117 80.9668 44.0428C80.083 44.8726 79.0265 45.3595 78.6212 45.1252C78.2156 44.89 76.9246 45.9809 75.7528 47.5489C70.8731 54.0749 61.5383 52.4563 59.4668 44.7253C58.0241 39.3413 60.4093 35.6207 66.352 33.9863L70.8018 32.7616L66.8049 30.6961C63.0417 28.7512 56.4222 27.9523 53.1106 29.0434C52.2939 29.3118 50.1799 30.4023 48.4137 31.4642ZM78.4911 53.6478C83.6595 57.9871 82.3814 65.6625 76.2171 67.3142C70.0066 68.9783 64.4895 62.1199 67.4253 56.3864C69.2667 52.791 75.603 51.2226 78.4911 53.6478ZM65.4354 67.2942C66.9717 68.4449 68.4387 70.1694 68.6953 71.1271C69.6091 74.5374 66.6579 79.2205 62.9717 80.2082C56.6055 81.914 51.6023 76.2538 53.8982 69.9413C55.3441 65.9634 61.7103 64.5024 65.4354 67.2942ZM96.2107 59.0598C100.252 61.6051 101.171 65.0398 98.8759 69.0189C96.42 73.2792 91.9547 74.3938 88.3037 71.6576C84.598 68.8822 83.8099 65.4102 86.0163 61.5855C88.3803 57.4845 92.2054 56.5372 96.2107 59.0598ZM68.2966 84.2511C74.6627 86.9822 74.1237 96.6278 67.5061 98.401C60.363 100.315 55.1887 93.0434 59.3488 86.9387C61.9425 83.1321 64.1456 82.4706 68.2966 84.2511ZM99.0184 75.9179C100.174 76.1882 101.928 77.5988 102.915 79.0519C105.143 82.33 104.569 86.1196 101.37 89.2442C98.6109 91.9393 94.6337 91.6034 91.0166 88.3708C89.008 86.5746 88.7159 85.7418 89.0911 82.8811C89.7728 77.6869 93.9781 74.7379 99.0184 75.9179ZM87.3201 89.979C92.9417 93.6137 90.5949 104.074 84.1327 104.184C80.0475 104.253 77.0711 102.386 76.2231 99.2212C75.0761 94.9408 75.6329 92.8702 78.5384 90.6134C81.6931 88.1648 84.2312 87.9818 87.3201 89.979Z" fill="url(#paint0_linear_3525_40)"/>
</g>
<defs>
<filter id="filter0_n_3525_40" x="23.0906" y="26.2351" width="111.606" height="103.932" filterUnits="userSpaceOnUse" color-interpolation-filters="sRGB">
<feFlood flood-opacity="0" result="BackgroundImageFix"/>
<feBlend mode="normal" in="SourceGraphic" in2="BackgroundImageFix" result="shape"/>
<feTurbulence type="fractalNoise" baseFrequency="5 5" stitchTiles="stitch" numOctaves="3" result="noise" seed="9070" />
<feColorMatrix in="noise" type="luminanceToAlpha" result="alphaNoise" />
<feComponentTransfer in="alphaNoise" result="coloredNoise1">
<feFuncA type="discrete" tableValues="1 1 1 1 1 1 1 1 1 1 1 1 1 1 1 1 1 1 1 1 1 1 1 1 1 1 1 1 1 1 1 1 1 1 1 1 1 1 1 1 1 1 1 1 1 1 1 1 1 1 1 0 0 0 0 0 0 0 0 0 0 0 0 0 0 0 0 0 0 0 0 0 0 0 0 0 0 0 0 0 0 0 0 0 0 0 0 0 0 0 0 0 0 0 0 0 0 0 0 0 "/>
</feComponentTransfer>
<feComposite operator="in" in2="shape" in="coloredNoise1" result="noise1Clipped" />
<feComponentTransfer in="alphaNoise" result="coloredNoise2">
<feFuncA type="discrete" tableValues="0 0 0 0 0 0 0 0 0 0 0 0 0 0 0 0 0 0 0 0 0 0 0 0 0 0 0 0 0 0 0 0 0 0 0 0 0 0 0 0 0 0 0 0 0 0 0 0 0 1 1 1 1 1 1 1 1 1 1 1 1 1 1 1 1 1 1 1 1 1 1 1 1 1 1 1 1 1 1 1 1 1 1 1 1 1 1 1 1 1 1 1 1 1 1 1 1 1 1 1 "/>
</feComponentTransfer>
<feComposite operator="in" in2="shape" in="coloredNoise2" result="noise2Clipped" />
<feFlood flood-color="rgba(0, 0, 0, 0.56)" result="color1Flood" />
<feComposite operator="in" in2="noise1Clipped" in="color1Flood" result="color1" />
<feFlood flood-color="rgba(0, 0, 0, 0.15)" result="color2Flood" />
<feComposite operator="in" in2="noise2Clipped" in="color2Flood" result="color2" />
<feMerge result="effect1_noise_3525_40">
<feMergeNode in="shape" />
<feMergeNode in="color1" />
<feMergeNode in="color2" />
</feMerge>
</filter>
<linearGradient id="paint0_linear_3525_40" x1="92.0698" y1="18.593" x2="75.9061" y2="103.158" gradientUnits="userSpaceOnUse">
<stop stop-color="#1A1A1A"/>
<stop offset="0.268651" stop-color="#252525"/>
<stop offset="0.564185" stop-color="#3A3A3A"/>
<stop offset="0.639053" stop-color="#414141"/>
<stop offset="0.875" stop-color="#525252"/>
<stop offset="1" stop-color="#666666"/>
</linearGradient>
</defs>
</svg>
